<svg xmlns="http://www.w3.org/2000/svg" width="63.194" height="62.976" viewBox="0 0 63.194 62.976">
  <g id="Image-2" transform="translate(-0.349 63.626)">
    <path id="Path_262" data-name="Path 262" d="M21.7-61.5A35.125,35.125,0,0,0,7-50.3C-4.4-34.8,1.7-11.9,19.5-3.8c7.1,3.2,19.2,3.2,25.3,0C47.5-5.2,49-6.7,49-8c0-3-1.7-3.3-7.6-1.1-10,3.8-19.7,1.9-26.9-5.4a24.747,24.747,0,0,1,5-39c11.6-6.9,27.1-2.8,34,9C58.7-35.7,57.6-21,51.7-21a5.1,5.1,0,0,1-3.5-1.3c-.6-.7-1.3-6.4-1.4-12.8-.3-11-.4-11.4-2.6-11.7a2.5,2.5,0,0,0-2.8,1.2c-.5,1.4-.9,1.4-3.7,0-6.4-3.4-15.8.1-19.1,7-6,12.7,6.7,25.8,19.4,20.1l3.9-1.8L45-17.6c7.3,6.1,16.2,1.1,17.5-9.7.9-7.3.1-12.6-3-18.6-3.1-6.2-11.2-13.5-17.2-15.5C36.6-63.3,26.9-63.4,21.7-61.5ZM38.1-38.1c2,2,2.9,3.9,2.9,6.1,0,4.3-4.7,9-9,9-2.2,0-4.1-.9-6.1-2.9-3.9-4-3.9-8.2,0-12.2,2-2,3.9-2.9,6.1-2.9S36.1-40.1,38.1-38.1Z" fill="#2b2b2b" stroke="#fff" stroke-width="1.5"/>
  </g>
</svg>
