<svg xmlns="http://www.w3.org/2000/svg" width="79" height="71.53" viewBox="0 0 79 71.53">
  <g id="chat-svgrepo-com_2_" data-name="chat-svgrepo-com (2)" transform="translate(0.17 1)">
    <g id="Group_473" data-name="Group 473" transform="translate(0.83)">
      <g id="Group_472" data-name="Group 472">
        <path id="Path_241" data-name="Path 241" d="M39.33,0C18.1,0,.83,15.516.83,34.587A32.487,32.487,0,0,0,9.45,56.4a21.189,21.189,0,0,1-7.736,9.028,1.537,1.537,0,0,0-.7,1.54A1.666,1.666,0,0,0,2.2,68.24a29.412,29.412,0,0,0,8.639,1.291,29.023,29.023,0,0,0,13.268-3.167A41.925,41.925,0,0,0,39.33,69.174c21.229,0,38.5-15.516,38.5-34.587S60.559,0,39.33,0Zm0,65.957a37.955,37.955,0,0,1-14.592-2.864,1.968,1.968,0,0,0-1.7.1,25.041,25.041,0,0,1-12.2,3.124,25.6,25.6,0,0,1-4.293-.361,23.755,23.755,0,0,0,6.635-9.341,1.484,1.484,0,0,0-.334-1.577A29.557,29.557,0,0,1,4.412,34.587c0-17.3,15.664-31.369,34.918-31.369S74.248,17.29,74.248,34.587,58.584,65.957,39.33,65.957Z" transform="translate(-0.83)" fill="#c6c6c6" stroke="#c6c6c6" stroke-width="2"/>
      </g>
    </g>
  </g>
</svg>
