<svg xmlns="http://www.w3.org/2000/svg" width="22.015" height="24.263" viewBox="0 0 22.015 24.263">
  <g id="collection" transform="translate(-184.258 -733.044)">
    <g id="Iconly_Curved_Paper" data-name="Iconly/Curved/Paper" transform="translate(178.513 725.091)">
      <g id="Paper" transform="translate(3.65 2.75)">
        <path id="Stroke_3" data-name="Stroke 3" d="M14.652,2.75h0c-8.145,0-11,3.051-11,12.13,0,9.1,2.754,12.13,11,12.13s11.015-2.79,11.015-12.13c0-7.5-2.02-10.777-7.139-11.823a20.4,20.4,0,0,0-3.876-.307Z" transform="translate(-1.557 2.456)" fill="#ff3000" fill-rule="evenodd"/>
      </g>
    </g>
    <path id="Path_247" data-name="Path 247" d="M80.751,73.452l-2.881-.419-1.288-2.611a.91.91,0,0,0-1.633,0l-1.288,2.611-2.881.419a.91.91,0,0,0-.5,1.553l2.085,2.032-.492,2.869a.91.91,0,0,0,1.321.96l2.577-1.355,2.577,1.355a.909.909,0,0,0,.424.1h0a.911.911,0,0,0,.886-1.114l-.484-2.82L81.256,75a.91.91,0,0,0-.5-1.553Z" transform="translate(119.5 669.733)" fill="#fff"/>
  </g>
</svg>
