<svg xmlns="http://www.w3.org/2000/svg" width="12.556" height="12.074" viewBox="0 0 12.556 12.074">
  <path id="Path_247" data-name="Path 247" d="M80.751,73.452l-2.881-.419-1.288-2.611a.91.91,0,0,0-1.633,0l-1.288,2.611-2.881.419a.91.91,0,0,0-.5,1.553l2.085,2.032-.492,2.869a.91.91,0,0,0,1.321.96l2.577-1.355,2.577,1.355a.909.909,0,0,0,.424.1h0a.911.911,0,0,0,.886-1.114l-.484-2.82L81.256,75a.91.91,0,0,0-.5-1.553Z" transform="translate(-69.487 -69.415)" fill="none" stroke="#2b2b2b" stroke-width="1"/>
</svg>
