<svg xmlns="http://www.w3.org/2000/svg" width="20" height="16.005" viewBox="0 0 20 16.005">
  <g id="ic_fluent_contact_card_24_regular" transform="translate(-2 -4)">
    <path id="_-Color" data-name="🎨-Color" d="M19.75,4A2.25,2.25,0,0,1,22,6.25v11.5A2.25,2.25,0,0,1,19.75,20H4.25A2.25,2.25,0,0,1,2,17.755V6.25A2.25,2.25,0,0,1,4.25,4Zm0,1.5H4.25a.75.75,0,0,0-.75.75v11.5a.75.75,0,0,0,.75.75h15.5a.75.75,0,0,0,.75-.75V6.25A.75.75,0,0,0,19.75,5.5Zm-10,7a.75.75,0,0,1,.75.75v.493l-.008.109C10.329,14.964,9.4,15.5,8,15.5S5.67,14.964,5.508,13.85L5.5,13.742V13.25a.75.75,0,0,1,.75-.75Zm3.5.5h4.5a.75.75,0,0,1,.1,1.493l-.1.007h-4.5a.75.75,0,0,1-.1-1.493l.1-.007h0ZM8,8.5A1.5,1.5,0,1,1,6.5,10,1.5,1.5,0,0,1,8,8.5Zm5.252,1h4.5a.75.75,0,0,1,.1,1.493l-.1.007h-4.5a.75.75,0,0,1-.1-1.493l.1-.007h0Z" fill="#fff"/>
  </g>
</svg>
