<?xml version="1.0" standalone="no"?>
<!DOCTYPE svg PUBLIC "-//W3C//DTD SVG 20010904//EN"
 "http://www.w3.org/TR/2001/REC-SVG-20010904/DTD/svg10.dtd">
<svg version="1.0" xmlns="http://www.w3.org/2000/svg"
 width="256.000000pt" height="256.000000pt" viewBox="0 0 256.000000 256.000000"
 preserveAspectRatio="xMidYMid meet">

<g transform="translate(0.000000,256.000000) scale(0.100000,-0.100000)"
fill="#FF5D2C" stroke="none">
<path d="M880 2540 c-17 -17 -20 -33 -20 -125 l0 -105 420 0 420 0 0 105 c0
158 38 145 -420 145 -367 0 -381 -1 -400 -20z"/>
<path d="M350 2148 c-74 -38 -84 -62 -88 -194 l-4 -114 1022 0 1022 0 -4 114
c-4 132 -14 156 -88 194 l-44 22 -886 0 -886 0 -44 -22z"/>
<path d="M425 1653 c3 -21 28 -380 55 -798 36 -544 55 -769 65 -792 29 -66 3
-64 744 -61 l669 3 25 23 c14 13 28 34 31 45 3 12 30 364 60 782 31 418 57
777 59 798 l3 37 -858 0 -858 0 5 -37z m651 -214 c18 -20 19 -44 19 -554 0
-510 -1 -534 -19 -554 -25 -27 -79 -28 -106 -1 -20 20 -20 33 -20 555 0 522 0
535 20 555 27 27 81 26 106 -1z m514 -1 c20 -21 20 -32 20 -552 l0 -530 -22
-23 c-28 -30 -78 -31 -104 -2 -18 20 -19 44 -19 554 0 510 1 534 19 554 26 28
79 28 106 -1z"/>
</g>
</svg>
