<svg xmlns="http://www.w3.org/2000/svg" width="207.066" height="207.013" viewBox="0 0 207.066 207.013">
  <g id="Image-3" transform="translate(-66.9 -622.349)">
    <path id="Path_282" data-name="Path 282" d="M181.9-230.6c-10.7,3.1-12.9,5.1-79.7,71.9L37-93.5,30.3-62.2c-6.2,29.1-6.6,31.6-5.2,34,2.8,5.1,4.2,5,37.5-2.1L93.5-37l65.3-65.2c61.8-61.8,65.5-65.7,69-72.7,3.5-7.1,3.7-8,3.7-17.1s-.2-10-3.7-17.2c-6.8-13.6-18.8-21.6-33.6-22.4A44.166,44.166,0,0,0,181.9-230.6Z" transform="translate(42.467 854)" fill="#419fff"/>
    <line id="Line_75" data-name="Line 75" x2="58" y2="58" transform="translate(182.934 654.849)" fill="none" stroke="#fff" stroke-width="10"/>
  </g>
</svg>
