<svg xmlns="http://www.w3.org/2000/svg" width="255.1" height="255.282" viewBox="0 0 255.1 255.282">
  <g id="Image-1_1" transform="translate(-0.45 255.732)">
    <path id="Path_260" data-name="Path 260" d="M114-255.4a135.476,135.476,0,0,0-58,21.7c-9.6,6.4-27.3,24.1-33.7,33.7A135.9,135.9,0,0,0,2.4-153c-2.6,11.9-2.6,38.1,0,50C7.9-77.3,19.3-56.4,37.9-37.9,56.8-19.1,77.1-8,103-2.4c11.9,2.6,38.1,2.6,50,0,25.7-5.5,46.6-16.9,65.1-35.5,18.6-18.5,30-39.4,35.5-65.1,2.6-11.9,2.6-38.1,0-50-5.6-25.9-16.7-46.3-35.5-65.1-18.5-18.5-37.9-29.3-63.1-35C146.7-255,121.9-256.4,114-255.4Zm31,16.9A110.117,110.117,0,0,1,207-207c34.1,34.1,42.5,84.5,21.4,127.9-3.1,6.2-5.9,11-6.3,10.5-.5-.5-1.4-3.2-2-5.9-1.7-7.3-10.1-24-15.9-31.6-6.5-8.5-17.6-18.6-25.7-23.3l-6.3-3.7,3.4-5.6c24.4-40.6-9-91.3-55.7-84.5-39.5,5.7-60.2,50.1-39.5,84.5l3.4,5.6-6.3,3.7c-8.1,4.7-19.2,14.8-25.7,23.3C46-98.5,37.6-81.8,35.9-74.5c-.6,2.7-1.5,5.4-2,5.9-.4.5-3.2-4.3-6.3-10.5C6.5-122.6,14.9-172.9,49-207A110.48,110.48,0,0,1,145-238.5Zm-.6,34.3c9.1,4.2,14.9,10,19.4,19,3.5,7.2,3.7,8.1,3.7,17.2s-.2,10-3.7,17.2c-4.5,9.1-10.3,14.7-19.6,19.1-6.1,2.9-7.6,3.2-16.2,3.2s-10.1-.3-16.2-3.2c-9.3-4.4-15.1-10-19.6-19.1-3.5-7.2-3.7-8.1-3.7-17.1,0-8.7.3-10.2,3.2-16.3,4-8.5,9.7-14.7,17.2-18.6,7.8-4.2,12.2-5.2,21.3-4.8A32.668,32.668,0,0,1,144.4-204.2Zm-40,86.7a55.181,55.181,0,0,0,47.3,0c4.5-2.1,8.7-3.4,9.8-3.1,3.9,1,15.7,9.4,22.2,15.7a80.449,80.449,0,0,1,23.4,46.5l1.3,8.8-4,3.4c-14,12.3-32,22.3-46.7,26.1-38.3,9.9-75.5.8-105.6-25.6l-4.5-3.9,1.3-8.8a80.751,80.751,0,0,1,39.3-58.9c3.4-2,6.8-3.7,7.4-3.7S100.2-119.4,104.4-117.5Z" fill="#2b2b2b"/>
  </g>
</svg>
