<svg xmlns="http://www.w3.org/2000/svg" width="31.479" height="37.27" viewBox="0 0 31.479 37.27">
  <g id="Group_548" data-name="Group 548" transform="translate(-371.275 -154.178)">
    <g id="Group_454" data-name="Group 454" transform="translate(371.276 154.178)">
      <g id="Iconly_Curved_Location" data-name="Iconly/Curved/Location" transform="translate(0 0)">
        <g id="Location" transform="translate(0 0)">
          <path id="Stroke_3" data-name="Stroke 3" d="M17.99,38.02a9.96,9.96,0,0,1-5.32-1.892,22,22,0,0,1-5.011-4.75,26.846,26.846,0,0,1-3.848-6.738A21.952,21.952,0,0,1,2.25,16.68a15.981,15.981,0,0,1,4.6-11.258,15.678,15.678,0,0,1,5-3.417A15.613,15.613,0,0,1,24.123,2a15.675,15.675,0,0,1,5,3.417,15.982,15.982,0,0,1,4.6,11.258,21.953,21.953,0,0,1-1.561,7.96,26.848,26.848,0,0,1-3.848,6.738,22.006,22.006,0,0,1-5.01,4.75A9.957,9.957,0,0,1,17.99,38.02Zm0-34.748a12.973,12.973,0,0,0-5.139,1.051,13.168,13.168,0,0,0-4.2,2.871A13.458,13.458,0,0,0,4.772,16.68a19.444,19.444,0,0,0,1.39,7.046,24.29,24.29,0,0,0,3.483,6.1,19.466,19.466,0,0,0,4.419,4.2A7.527,7.527,0,0,0,17.99,35.5a7.525,7.525,0,0,0,3.925-1.472,19.467,19.467,0,0,0,4.419-4.2,24.292,24.292,0,0,0,3.483-6.1,19.444,19.444,0,0,0,1.39-7.046A13.46,13.46,0,0,0,27.33,7.194a13.164,13.164,0,0,0-4.2-2.87A12.971,12.971,0,0,0,17.99,3.272Z" transform="translate(-2.25 -0.75)" fill="#ff4c29"/>
        </g>
      </g>
      <ellipse id="Ellipse_5" data-name="Ellipse 5" cx="14.5" cy="16.5" rx="14.5" ry="16.5" transform="translate(1.724 1.822)" fill="#ff4c29"/>
    </g>
    <path id="star-svgrepo-com-2" d="M13.7,10.559a.423.423,0,0,0-.341-.288L9.133,9.656,7.242,5.824a.423.423,0,0,0-.759,0L4.591,9.656l-4.229.615a.423.423,0,0,0-.234.722l3.06,2.983-.722,4.212a.423.423,0,0,0,.614.446l3.783-1.989,3.783,1.989a.423.423,0,0,0,.2.049h0a.423.423,0,0,0,.41-.526l-.717-4.181,3.06-2.983A.423.423,0,0,0,13.7,10.559Z" transform="translate(380.153 157.672)" fill="#fff" stroke="#fff" stroke-width="2.2"/>
  </g>
</svg>
