<svg xmlns="http://www.w3.org/2000/svg" width="20.41" height="24.302" viewBox="0 0 20.41 24.302">
  <g id="Group_572" data-name="Group 572" transform="translate(-153.85 -735.85)">
    <g id="marker_1_" data-name="marker (1)" transform="translate(152.055 736.002)">
      <path id="Path_254" data-name="Path 254" d="M12,24a5.271,5.271,0,0,1-4.311-2.2c-3.811-5.257-5.744-9.209-5.744-11.747a10.055,10.055,0,1,1,20.11,0c0,2.538-1.933,6.49-5.744,11.747A5.271,5.271,0,0,1,12,24ZM12,2.181a7.883,7.883,0,0,0-7.874,7.874c0,2.01,1.893,5.727,5.329,10.466a3.145,3.145,0,0,0,5.09,0c3.436-4.739,5.329-8.456,5.329-10.466A7.883,7.883,0,0,0,12,2.181Z" fill="#2b2b2b" stroke="#fff" stroke-width="0.3"/>
    </g>
    <path id="Path_261" data-name="Path 261" d="M78.124,72.587l-2.177-.316L74.973,70.3a.688.688,0,0,0-1.234,0l-.973,1.973-2.177.316a.688.688,0,0,0-.381,1.173L71.783,75.3l-.372,2.168a.688.688,0,0,0,1,.725l1.947-1.024L76.3,78.189a.687.687,0,0,0,.32.079h0a.689.689,0,0,0,.669-.842L76.93,75.3,78.5,73.761a.688.688,0,0,0-.381-1.173Z" transform="translate(89.698 671.733)" fill="#fff" stroke="#2b2b2b" stroke-width="1.5"/>
  </g>
</svg>
