<svg xmlns="http://www.w3.org/2000/svg" width="51.705" height="44.757" viewBox="0 0 51.705 44.757">
  <g id="Group_560" data-name="Group 560" transform="translate(-42.647 -218.121)">
    <path id="Path_244" data-name="Path 244" d="M87.778-468.781a3.464,3.464,0,0,0-1.623,1.065,3.616,3.616,0,0,0-.949,1.961c-.071.408-.089,4.081-.071,12.287l.027,11.71.2.515a4.048,4.048,0,0,0,2.218,2.289l.515.213,15.658.027c11.444.018,15.8,0,16.19-.071a3.854,3.854,0,0,0,2.972-2.972c.071-.381.089-3.806.071-12.42l-.027-11.888-.2-.47a4.087,4.087,0,0,0-1.473-1.8c-1.02-.656.337-.612-17.22-.6C89.206-468.941,88.239-468.932,87.778-468.781Zm32.283,1.925a1.859,1.859,0,0,1,1.029,1.49c.027.248.044,4.276.027,8.96l-.027,8.5-4.2-4.888c-2.3-2.688-4.356-5.012-4.56-5.154a2.883,2.883,0,0,0-3.3.027c-.2.142-2.91,3.362-7.834,9.28a20.32,20.32,0,0,1-1.561-1.482c-1.792-1.783-2.014-1.916-3.123-1.916-1.3-.009-1.224-.053-5.607,4.32L87.068-443.9v-10.885c0-10.548.009-10.9.169-11.222a2.717,2.717,0,0,1,.426-.568c.568-.541-.594-.506,16.4-.515h15.525ZM111.27-456.37c.115.08,2.378,2.688,5.03,5.784l4.826,5.633.009,1.269a9.954,9.954,0,0,1-.106,1.686,2.073,2.073,0,0,1-1.331,1.331c-.541.142-30.731.151-31.219.018a2.421,2.421,0,0,1-.612-.293c-.63-.426-.887-.106,3.859-4.853,2.857-2.857,4.418-4.356,4.569-4.391a1.068,1.068,0,0,1,.5.044,21.314,21.314,0,0,1,2.076,1.907,21.3,21.3,0,0,0,2.076,1.907c.594.222.568.248,5.03-5.1,2.741-3.291,4.249-5.03,4.409-5.092A.931.931,0,0,1,111.27-456.37Z" transform="translate(-34.944 687.066)" fill="#9ba4b1"/>
    <path id="add-svgrepo-com" d="M10.31,4a.789.789,0,0,1,.789.789V9.521h4.732a.789.789,0,1,1,0,1.577H11.1v4.732a.789.789,0,1,1-1.577,0V11.1H4.789a.789.789,0,1,1,0-1.577H9.521V4.789A.789.789,0,0,1,10.31,4Z" transform="translate(77.733 246.259)" fill="#9ba4b1"/>
    <g id="image-gallery_1_" data-name="image-gallery (1)" transform="translate(42.476 687.066)">
      <path id="Path_245" data-name="Path 245" d="M152.084-404.618a3.624,3.624,0,0,0-1.623,1.073,3.7,3.7,0,0,0,.124,5.181,3.759,3.759,0,0,0,6.379-2.076,3.711,3.711,0,0,0-1.189-3.345,3.2,3.2,0,0,0-2.4-.967A3.336,3.336,0,0,0,152.084-404.618Zm1.907,1.872a1.9,1.9,0,0,1,.133,3.371,1.863,1.863,0,0,1-2.431-.594,1.96,1.96,0,0,1-.16-1.845A1.879,1.879,0,0,1,153.991-402.746Z" transform="translate(-136.047 -58.494)" fill="#9ba4b1"/>
      <path id="Path_246" data-name="Path 246" d="M4.4-304.872a1,1,0,0,0-.373.506c-.337.9-3.8,14-3.841,14.531a3.821,3.821,0,0,0,2.129,3.664c.257.115,2.732.825,5.518,1.57s9.448,2.528,14.815,3.966,10.007,2.644,10.3,2.661a3.852,3.852,0,0,0,3.584-2.014,60.908,60.908,0,0,0,1.774-6.494,1,1,0,0,0-.7-.914,1.075,1.075,0,0,0-.985.4c-.08.151-1.686,5.944-1.686,6.086a3.113,3.113,0,0,1-.364.435,1.638,1.638,0,0,1-.852.541c-.55.16-.479.169-2.821-.461-.976-.257-7.6-2.032-14.727-3.939-14-3.744-13.44-3.566-13.857-4.294s-.452-.5,1.615-8.2c1.047-3.912,1.907-7.221,1.907-7.346a.9.9,0,0,0-.3-.532A.884.884,0,0,0,4.4-304.872Z" transform="translate(0 -149.396)" fill="#9ba4b1"/>
    </g>
  </g>
</svg>
