<svg xmlns="http://www.w3.org/2000/svg" width="20.1" height="23.706" viewBox="0 0 20.1 23.706">
  <g id="Location" transform="translate(0.25 0.25)">
    <path id="Stroke_1" data-name="Stroke 1" d="M11.051,13.54a3.79,3.79,0,1,1,3.79-3.79A3.767,3.767,0,0,1,11.051,13.54Zm0-6.01a2.22,2.22,0,1,0,2.219,2.22A2.223,2.223,0,0,0,11.051,7.53Z" transform="translate(-1.263 0.302)" fill="#fff" stroke="#fff" stroke-linecap="round" stroke-width="0.5"/>
    <path id="Stroke_3" data-name="Stroke 3" d="M12.051,23.956a6.2,6.2,0,0,1-3.313-1.178,13.7,13.7,0,0,1-3.12-2.958,16.716,16.716,0,0,1-2.4-4.2,13.668,13.668,0,0,1-.972-4.956,9.95,9.95,0,0,1,2.867-7.01A9.762,9.762,0,0,1,8.232,1.531a9.721,9.721,0,0,1,7.637,0,9.76,9.76,0,0,1,3.115,2.128,9.951,9.951,0,0,1,2.866,7.01,13.669,13.669,0,0,1-.972,4.956,16.717,16.717,0,0,1-2.4,4.2,13.7,13.7,0,0,1-3.119,2.958A6.2,6.2,0,0,1,12.051,23.956Zm0-21.636a8.078,8.078,0,0,0-3.2.654A8.2,8.2,0,0,0,6.235,4.762,8.38,8.38,0,0,0,3.82,10.669a12.107,12.107,0,0,0,.865,4.387,15.124,15.124,0,0,0,2.169,3.8,12.12,12.12,0,0,0,2.752,2.618,4.687,4.687,0,0,0,2.445.917,4.685,4.685,0,0,0,2.444-.917,12.121,12.121,0,0,0,2.751-2.618,15.126,15.126,0,0,0,2.168-3.8,12.107,12.107,0,0,0,.865-4.387,8.381,8.381,0,0,0-2.414-5.906A8.2,8.2,0,0,0,15.25,2.975,8.076,8.076,0,0,0,12.051,2.32Z" transform="translate(-2.25 -0.75)" fill="#fff" stroke="#fff" stroke-linecap="round" stroke-width="0.5"/>
  </g>
</svg>
