<svg xmlns="http://www.w3.org/2000/svg" width="42.003" height="46" viewBox="0 0 42.003 46">
  <g id="switch" transform="translate(-22.113 511.992)">
    <path id="Path_255" data-name="Path 255" d="M236.272-511.849a2.13,2.13,0,0,0-1,.953c-.171.333-.171.6-.153,8.591l.027,8.25.225.333a2.725,2.725,0,0,0,.575.584,1.405,1.405,0,0,0,1.042.243,1.405,1.405,0,0,0,1.042-.243,2.725,2.725,0,0,0,.575-.584l.225-.333.027-8.25c.018-7.989.018-8.259-.153-8.591A1.926,1.926,0,0,0,236.272-511.849Z" transform="translate(-193.859 0)" fill="#2b2b2b"/>
    <path id="Path_256" data-name="Path 256" d="M34.1-450.545a21.231,21.231,0,0,0-11.871,16.419,27.081,27.081,0,0,0,.135,6.156,20.886,20.886,0,0,0,5.662,11.126,19.939,19.939,0,0,0,5.805,4.242,20.842,20.842,0,0,0,18.6,0,21.037,21.037,0,0,0,11-13.282,17,17,0,0,0,.683-5.545,16.505,16.505,0,0,0-.494-4.9A21.185,21.185,0,0,0,52.038-450.59a2.128,2.128,0,0,0-1.366-.324,1.675,1.675,0,0,0-1.564,1,1.856,1.856,0,0,0,.3,2.157,7.082,7.082,0,0,0,1.321.8,16.862,16.862,0,0,1,4.511,3.2,17.2,17.2,0,0,1,.306,24.219,15.89,15.89,0,0,1-4.817,3.523,16.535,16.535,0,0,1-4.179,1.438,19.665,19.665,0,0,1-5.769.18,17.042,17.042,0,0,1-10.1-5.185,17.217,17.217,0,0,1,.35-24.174A17.046,17.046,0,0,1,35.637-447c1.042-.53,1.384-.809,1.6-1.339a1.978,1.978,0,0,0-.683-2.283,1.464,1.464,0,0,0-1.007-.279A2.339,2.339,0,0,0,34.1-450.545Z" transform="translate(0 -55.579)" fill="#2b2b2b"/>
  </g>
</svg>
