<svg xmlns="http://www.w3.org/2000/svg" width="42.534" height="50.862" viewBox="0 0 42.534 50.862">
  <g id="Group_454" data-name="Group 454" transform="translate(2 1.967)">
    <g id="Iconly_Curved_Location" data-name="Iconly/Curved/Location" transform="translate(0 0.655)">
      <g id="Location">
        <path id="Stroke_1" data-name="Stroke 1" d="M9.51,14.634a6.422,6.422,0,1,1,6.424,6.421A6.423,6.423,0,0,1,9.51,14.634Z" transform="translate(3.308 5.174)" fill="none" stroke="#fff" stroke-linecap="round" stroke-linejoin="round" stroke-width="4" fill-rule="evenodd"/>
        <path id="Stroke_3" data-name="Stroke 3" d="M23.768,49.24c7.445,0,19.266-12.951,19.266-26.72A19.394,19.394,0,0,0,23.768,3,19.4,19.4,0,0,0,4.5,22.52C4.5,36.29,16.321,49.24,23.768,49.24Z" transform="translate(-4.5 -3)" fill="none" stroke="#fff" stroke-linecap="round" stroke-linejoin="round" stroke-width="4" fill-rule="evenodd"/>
      </g>
    </g>
    <path id="Path_231" data-name="Path 231" d="M706.689,3375.978c26.606-17.8,15.21-24.417,15.21-24.417" transform="translate(-698.469 -3335.893)" fill="none" stroke="#fff" stroke-width="4"/>
    <path id="Path_232" data-name="Path 232" d="M0,24.187C17.414,6.208,8.584,0,8.584,0" transform="translate(21.751 26.393) rotate(-161)" fill="none" stroke="#fff" stroke-width="4"/>
  </g>
</svg>
