<svg xmlns="http://www.w3.org/2000/svg" width="33.071" height="37.444" viewBox="0 0 33.071 37.444">
  <path id="moon-night-mode-space-rocket-svgrepo-com" d="M29.433,45.334a18.528,18.528,0,0,1-7.284-1.475A1.553,1.553,0,0,1,23.361,41a15.43,15.43,0,0,0,6.072,1.227,15.655,15.655,0,0,0,9.14-2.959,18.73,18.73,0,0,1-12.58-27.885A15.655,15.655,0,0,0,13.817,26.612a15.461,15.461,0,0,0,3.013,9.217,1.555,1.555,0,1,1-2.508,1.84A18.73,18.73,0,0,1,29.309,7.89h0a1.558,1.558,0,0,1,1.173,2.594A15.616,15.616,0,0,0,42.129,36.5h.1a1.555,1.555,0,0,1,1.157,2.594A18.714,18.714,0,0,1,29.433,45.334Z" transform="translate(-10.715 -7.89)" fill="#9ca3af"/>
</svg>
