<svg xmlns="http://www.w3.org/2000/svg" width="24" height="23.999" viewBox="0 0 24 23.999">
  <path id="comment-pen" d="M8.586,18H7a1,1,0,0,1-1-1V15.414a3.971,3.971,0,0,1,1.172-2.828l5.707-5.707a3,3,0,1,1,4.242,4.243l-5.707,5.707A3.975,3.975,0,0,1,8.586,18ZM8,16h.586A1.986,1.986,0,0,0,10,15.414l5.707-5.707a1,1,0,0,0-1.414-1.414L8.586,14A2.017,2.017,0,0,0,8,15.414V16Zm11,8H13.083C6.082,24,.471,19.208.029,12.854A12,12,0,0,1,12.836.029,12.208,12.208,0,0,1,24,12.341V19a5.006,5.006,0,0,1-5,5ZM12.015,2A10,10,0,0,0,2.026,12.716C2.4,18.1,7.049,22,13.084,22H19a3,3,0,0,0,3-3v-6.66A10.2,10.2,0,0,0,12.7,2.025C12.473,2.009,12.244,2,12.015,2Z" transform="translate(0 -0.002)" fill="#4faef9"/>
</svg>
