<svg xmlns="http://www.w3.org/2000/svg" width="255.885" height="213.785" viewBox="0 0 255.885 213.785">
  <g id="share" transform="translate(0.042 234.785)">
    <path id="Path_281" data-name="Path 281" d="M168.3-233.1c-5.6,3.5-6.7,7-7.3,22.6l-.5,13.9-10.8,1.2a163.9,163.9,0,0,0-97,45.3C22.5-120.9,5.7-87.3,1-46.5-.7-31.3-.4-26.3,2.5-23.5A7.758,7.758,0,0,0,7.9-21c2.6,0,4.1-1.3,10.2-8.7C50.5-69,93.7-93,143.3-99.5c6.5-.8,13.1-1.5,14.8-1.5H161v13c0,14.7.9,18.1,5.9,22.3,4,3.3,10.4,3.6,15.9.8,2-1.1,18.4-16.7,36.3-34.8,30.4-30.6,32.8-33.2,34.9-38.8a24.161,24.161,0,0,0,1.7-12.1c-.9-11.6-2-13.1-36-47.2-17.2-17.2-32.9-32.4-35-33.9C179.6-235.2,172.6-235.8,168.3-233.1Z" fill="#dee0e0"/>
  </g>
</svg>
