<svg xmlns="http://www.w3.org/2000/svg" width="26.728" height="25.5" viewBox="0 0 26.728 25.5">
  <path id="star-svgrepo-com-2" d="M26.687,15.268a.824.824,0,0,0-.665-.561l-8.236-1.2L14.1,6.047a.824.824,0,0,0-1.478,0L8.942,13.51l-8.237,1.2a.824.824,0,0,0-.457,1.405l5.96,5.809L4.8,30.125a.824.824,0,0,0,1.2.868l7.367-3.873,7.367,3.873a.823.823,0,0,0,.383.095h0a.825.825,0,0,0,.8-1.024l-1.4-8.142,5.96-5.809A.823.823,0,0,0,26.687,15.268Z" transform="translate(0 -5.588)" fill="rgba(255,187,95,0.31)"/>
</svg>
