<svg xmlns="http://www.w3.org/2000/svg" width="39.082" height="37.401" viewBox="0 0 39.082 37.401">
  <path id="star-svgrepo-com-2" d="M36.283,18.749a1.12,1.12,0,0,0-.9-.762l-11.2-1.628L19.173,6.212a1.12,1.12,0,0,0-2.009,0L12.157,16.359.959,17.987A1.12,1.12,0,0,0,.338,19.9l8.1,7.9L6.528,38.947a1.12,1.12,0,0,0,1.625,1.181l10.016-5.265,10.015,5.265a1.119,1.119,0,0,0,.521.129h0A1.121,1.121,0,0,0,29.8,38.864L27.9,27.8,36,19.9A1.119,1.119,0,0,0,36.283,18.749Z" transform="translate(1.372 -4.238)" fill="none" stroke="#9ca3af" stroke-width="2.7"/>
</svg>
