<svg xmlns="http://www.w3.org/2000/svg" width="27.1" height="41.462" viewBox="0 0 27.1 41.462">
  <g id="Group_339" data-name="Group 339" transform="translate(-319 -0.233)">
    <path id="Path_201" data-name="Path 201" d="M0,0H27.1V41.462l-13.282-10.5L0,41.462Z" transform="translate(319 0.233)" fill="#9100dd"/>
    <path id="star-svgrepo-com-2" d="M17.894,12.079a.552.552,0,0,0-.446-.376l-5.523-.8-2.47-5a.552.552,0,0,0-.991,0L6,10.9l-5.523.8a.552.552,0,0,0-.306.942l4,3.9-.943,5.5a.552.552,0,0,0,.8.582l4.939-2.6,4.939,2.6a.552.552,0,0,0,.257.063h0A.553.553,0,0,0,14.694,22l-.936-5.459,4-3.9A.552.552,0,0,0,17.894,12.079Z" transform="translate(323.27 1.412)" fill="#fff"/>
  </g>
</svg>
