<svg id="Group_339" data-name="Group 339" xmlns="http://www.w3.org/2000/svg" width="27.1" height="74.476" viewBox="0 0 27.1 74.476">
  <path id="Path_201" data-name="Path 201" d="M0,0H27.1V74.476H0Z" fill="#ea7436"/>
  <path id="star-svgrepo-com-2" d="M18.917,12.45a.584.584,0,0,0-.471-.4L12.607,11.2,10,5.914a.584.584,0,0,0-1.047,0L6.338,11.2.5,12.052a.584.584,0,0,0-.324,1L4.4,17.166l-1,5.814a.584.584,0,0,0,.847.616l5.222-2.745L14.694,23.6a.583.583,0,0,0,.272.067h0a.585.585,0,0,0,.567-.726l-.99-5.771,4.224-4.118A.584.584,0,0,0,18.917,12.45Z" transform="translate(4.078 19.972)" fill="#fff"/>
</svg>
